<?xml version="1.0" encoding="UTF-8" standalone="no"?>
<!-- Created with Inkscape (http://www.inkscape.org/) -->

<svg
   version="1.1"
   id="svg1"
   width="491.51999"
   height="491.51999"
   viewBox="0 0 491.51999 491.51999"
   sodipodi:docname="Youtube.png"
   inkscape:export-filename="Youtube.svg"
   inkscape:export-xdpi="96"
   inkscape:export-ydpi="96"
   inkscape:version="1.3 (0e150ed6c4, 2023-07-21)"
   inkscape:dataloss="true"
   xmlns:inkscape="http://www.inkscape.org/namespaces/inkscape"
   xmlns:sodipodi="http://sodipodi.sourceforge.net/DTD/sodipodi-0.dtd"
   xmlns="http://www.w3.org/2000/svg"
   xmlns:svg="http://www.w3.org/2000/svg">
  <defs
     id="defs1" />
  <sodipodi:namedview
     id="namedview1"
     pagecolor="#ffffff"
     bordercolor="#000000"
     borderopacity="0.25"
     inkscape:showpageshadow="2"
     inkscape:pageopacity="0.0"
     inkscape:pagecheckerboard="0"
     inkscape:deskcolor="#d1d1d1"
     inkscape:zoom="1.6703288"
     inkscape:cx="215.52643"
     inkscape:cy="221.21393"
     inkscape:window-width="1920"
     inkscape:window-height="1017"
     inkscape:window-x="-8"
     inkscape:window-y="-8"
     inkscape:window-maximized="1"
     inkscape:current-layer="g1" />
  <g
     inkscape:groupmode="layer"
     inkscape:label="Image"
     id="g1">
    <path
       style="fill:#ff0000;stroke-width:0.709008"
       d="m 146.07902,483.97745 -59.569107,-0.54595 -7.58753,-2.25715 C 54.868922,474.01893 34.220697,455.77868 18.858854,428.11541 6.235395,405.38338 -0.43497082,379.66737 -1.8054921,348.44897 c -0.7263404,-16.54493 -0.7263404,-197.79982 0,-214.34473 C -0.17031533,96.85739 9.1265228,66.950707 27.013891,41.396142 44.783245,16.010175 65.394466,2.4849521 91.203456,-0.72548567 c 11.221744,-1.39589753 291.904494,-1.39589753 303.126234,0 25.65735,3.19157407 46.54707,16.85353567 64.0951,41.91844567 14.20457,20.289255 23.10064,43.759448 27.10108,71.4999 2.08178,14.43581 2.37077,30.10937 2.37077,128.58375 0,51.95408 -0.2511,100.18165 -0.558,107.17236 -1.63454,37.23224 -10.9982,67.32127 -28.91385,92.91129 -17.98151,25.68407 -39.64427,39.562 -65.08906,41.69835 -12.17219,1.022 -171.43005,1.61382 -247.25671,0.91884 z M 192.92248,334.985 c 29.53962,-19.05701 87.55309,-57.94798 110.3071,-73.94747 15.97069,-11.22981 16.78142,-11.91389 17.23475,-14.54258 0.63657,-3.6911 -0.45525,-6.68624 -3.46088,-9.49402 -6.58113,-6.14795 -128.88582,-92.70792 -134.38505,-95.10974 -3.13904,-1.37099 -3.33527,-1.36514 -4.78948,0.14312 -3.38054,3.50619 -3.21264,-1.33733 -3.46942,100.08195 l -0.23704,93.62232 2.11224,3.14873 c 1.54326,2.30056 2.6033,3.14874 3.9352,3.14874 1.01909,0 6.64264,-3.10932 12.75258,-7.05105 z"
       id="path2" />
  </g>
</svg>
